<?xml version="1.0" encoding="utf-8"?>
<!-- Generator: Adobe Illustrator 16.0.0, SVG Export Plug-In . SVG Version: 6.00 Build 0)  -->
<!DOCTYPE svg PUBLIC "-//W3C//DTD SVG 1.1//EN" "http://www.w3.org/Graphics/SVG/1.1/DTD/svg11.dtd">
<svg version="1.1" id="Layer_1" xmlns="http://www.w3.org/2000/svg" xmlns:xlink="http://www.w3.org/1999/xlink" x="0px" y="0px"
	 width="504px" height="360px" viewBox="0 0 504 360" enable-background="new 0 0 504 360" xml:space="preserve">
<g>
	
		<line fill="#FFFFFF" stroke="#000000" stroke-width="0.5" stroke-linecap="round" stroke-linejoin="round" x1="25.135" y1="224.542" x2="478.865" y2="224.542"/>
	<path fill="#FFFFFF" d="M222.833,230.61c3.366,0,23.297-33.391,43.487-71.182c14.236,38.309,35.721,77.137,53.064,77.137
		c6.471,0,20.967-8.801,20.967-12.426c0-1.035-1.035-1.812-3.625-1.812c-19.93,0-43.227-66.783-48.146-91.633
		c23.816-26.661,92.41-67.301,106.648-75.066c4.141-2.33,5.953-5.436,5.953-8.801c0-8.283-10.096-17.602-14.238-17.602
		c-4.918,0-68.594,53.323-98.363,86.974c13.203-27.18,23.297-50.994,23.297-59.018c0-15.014-14.494-31.062-28.73-31.062
		c-19.932,0-93.187,70.148-93.187,108.717c0,15.79,13.977,31.579,23.296,31.579c17.861,0,35.204-58.241,41.416-72.736l-1.813-1.553
		c-9.318,17.342-33.649,61.606-39.862,61.606c-2.071,0-4.141,0-4.141-2.848c0-34.168,65.49-115.447,81.537-115.447
		c1.295,0,2.072,0.777,2.072,1.812c0,26.403-88.528,168.771-88.269,174.465C204.455,217.669,219.468,230.61,222.833,230.61
		L222.833,230.61z"/>
	<path fill="#FFFFFF" d="M157.508,125.87c-1.603,0-9.118,10.922-17.134,24.248c-0.301-0.1-0.602-0.1-0.902-0.1
		c-19.439,0-41.683,25.351-41.683,38.577c0,5.912,5.21,13.527,8.416,13.527c3.808,0,8.918-7.214,13.828-12.926
		c-0.802,2.205-1.202,4.008-1.202,5.211c0,4.509,4.108,7.814,8.617,7.814c3.407,0,11.924-15.431,18.437-24.648
		c7.014-9.92,10.521-12.725,10.521-15.531c-2.505,0-15.531,16.032-26.153,32.966c-0.4-0.301-0.701-0.401-0.701-1.202
		c0-9.92,34.369-61.223,34.369-64.529C163.921,127.072,160.814,125.87,157.508,125.87L157.508,125.87z M124.041,179.776
		c-5.21,5.713-14.228,15.231-16.132,15.231c-0.902,0-1.603-0.401-1.603-1.804c0-7.415,23.146-40.681,32.264-40.681h0.301
		C133.46,161.741,127.849,171.661,124.041,179.776L124.041,179.776z M142.977,177.072c0,0.601,1.303,1.702,1.904,1.702
		c0.1,0,5.912-7.915,9.92-12.524c0.1,0,0.2,0,0.301,0c3.707,0,7.314-5.31,8.316-5.31c0.501,0,0.802,0.1,0.802,0.601
		c0,1.403-17.936,24.549-18.537,30.16c0,0.301-0.1,0.702-0.1,1.002c0,5.11,4.408,10.021,9.118,10.021
		c8.316,0,20.541-23.949,33.366-38.478c0-0.601-0.601-0.901-1.202-0.901c-0.601,0-1.403,0.3-1.804,0.801
		c-7.114,7.515-22.344,30.46-27.354,30.46c-0.702,0-0.802,0-0.802-0.4c0-4.208,21.844-35.07,21.844-40.38
		c0-1.804-4.71-3.307-7.415-3.307c-1.804,0-4.409,5.311-7.415,5.311c-0.3,0-0.401-0.301-0.401-0.902
		c0-0.401,0.101-0.902,0.101-1.403c0-1.703-0.401-3.707-3.407-3.707c-3.908,0-9.619,6.713-9.619,12.024
		c0,1.202,0.3,2.404,1.102,3.406C147.887,170.459,142.977,176.17,142.977,177.072L142.977,177.072z M185.161,185.188
		c-3.507,0-7.615,9.519-7.615,12.425c0,2.905,4.709,5.911,7.314,5.911c2.706,0,8.116-10.62,8.116-12.825
		C192.976,187.394,188.668,185.188,185.161,185.188L185.161,185.188z"/>
	<path fill="#FFFFFF" d="M138.939,310.569c0,3.149,0,5.723-0.192,7.066c-0.153,0.961-0.23,1.575-0.883,1.729
		c-0.307,0.077-0.73,0.153-1.037,0.153c-0.192,0-0.269,0.153-0.269,0.269c0,0.192,0.192,0.269,0.538,0.269
		c1.037,0,3.226-0.114,3.341-0.114c0.154,0,2.382,0.114,4.226,0.114c0.384,0,0.537-0.114,0.537-0.269
		c0-0.115-0.077-0.269-0.269-0.269c-0.307,0-1.037-0.076-1.498-0.153c-1.037-0.154-1.229-0.769-1.344-1.729
		c-0.154-1.344-0.154-3.917-0.154-7.066v-13.29c0-0.347,0.077-0.576,0.269-0.614c0.346-0.077,1.306-0.23,1.882-0.23
		c0.769,0,2.804-0.192,4.571,1.574c1.805,1.768,1.921,3.879,1.921,4.955c0,2.957-2.612,5.262-6.261,5.262
		c-0.692,0-0.884,0.077-0.884,0.347c0,0.152,0.192,0.307,0.346,0.307c0.192,0.038,0.768,0.038,0.96,0.038
		c5.186,0,8.719-3.111,8.719-7.797c0-1.768-0.921-3.227-1.69-3.918c-0.576-0.499-2.112-1.843-6.453-1.843
		c-1.536,0-4.071,0.075-4.801,0.075c-0.269,0-2.381-0.075-3.918-0.075c-0.384,0-0.537,0.075-0.537,0.268
		c0,0.116,0.153,0.27,0.269,0.27c0.307,0,0.883,0.038,1.152,0.076c1.114,0.154,1.306,0.692,1.383,1.806
		c0.076,1.038,0.076,1.959,0.076,7.028V310.569L138.939,310.569z M163.142,310.569c0,3.149,0,5.723-0.193,7.066
		c-0.153,0.961-0.23,1.575-0.883,1.729c-0.307,0.077-0.73,0.153-1.037,0.153c-0.192,0-0.269,0.153-0.269,0.269
		c0,0.192,0.192,0.269,0.538,0.269c1.037,0,3.303-0.114,3.341-0.114c0.154,0,2.305,0.114,4.149,0.114
		c0.384,0,0.538-0.114,0.538-0.269c0-0.115-0.039-0.269-0.269-0.269c-0.308,0-1.037-0.076-1.498-0.153
		c-1.037-0.154-1.229-0.769-1.345-1.729c-0.153-1.344-0.153-3.879-0.153-7.028v-0.769c0-0.191,0.076-0.269,0.23-0.269l4.302,0.077
		c0.23,0,0.307,0.039,0.461,0.191c0.73,0.884,2.228,2.996,3.649,4.764c1.92,2.457,3.15,4.032,4.609,4.801
		c0.845,0.461,1.69,0.652,3.611,0.652h2.112c0.615,0,0.807-0.076,0.807-0.269c0-0.115-0.115-0.269-0.307-0.269
		c-0.193,0-0.538,0-1.191-0.115c-0.845-0.115-1.959-0.422-3.764-2.267c-1.959-2.036-4.302-4.993-7.068-8.449
		c3.15-2.689,4.148-5.032,4.148-7.452c0-2.267-1.498-3.842-2.343-4.455c-1.766-1.229-4.148-1.421-6.299-1.421
		c-1.037,0-3.879,0.075-4.225,0.075c-0.192,0-2.458-0.075-3.995-0.075c-0.384,0-0.537,0.075-0.537,0.268
		c0,0.116,0.153,0.27,0.269,0.27c0.307,0,0.883,0.038,1.152,0.076c1.114,0.154,1.306,0.692,1.383,1.806
		c0.077,1.038,0.077,1.959,0.077,7.028V310.569L163.142,310.569z M166.061,297.087c0-0.191,0.115-0.307,0.269-0.384
		c0.345-0.077,1.421-0.192,2.419-0.192c3.611,0,5.839,2.344,5.839,6.414c0,2.497-0.884,4.226-2.036,4.994
		c-0.807,0.537-1.729,0.576-2.535,0.576c-1.498,0-3.227-0.231-3.726-0.499c-0.154-0.116-0.23-0.231-0.23-0.423V297.087
		L166.061,297.087z M188.269,307.65c0,5.877,3.956,12.829,13.213,12.829c8.143,0,13.559-6.031,13.559-13.329
		c0-7.605-5.762-12.252-13.367-12.252C192.341,294.898,188.269,302.388,188.269,307.65L188.269,307.65z M191.765,306.766
		c0-7.104,4.071-10.639,9.717-10.639c5.339,0,10.102,4.11,10.102,11.945c0,9.449-6.107,11.062-9.141,11.062
		C196.335,319.134,191.765,314.372,191.765,306.766L191.765,306.766z M225.373,310.569c0,3.149,0,5.723-0.192,7.066
		c-0.154,0.961-0.23,1.614-0.883,1.729c-0.308,0.038-0.73,0.153-1.037,0.153c-0.192,0-0.269,0.153-0.269,0.269
		c0,0.192,0.192,0.269,0.538,0.269c1.037,0,3.149-0.114,3.341-0.114c0.154,0,2.343,0.114,4.225,0.114
		c0.384,0,0.538-0.114,0.538-0.269c0-0.115-0.077-0.269-0.269-0.269c-0.307,0-1.037-0.076-1.536-0.153
		c-0.922-0.154-1.114-0.769-1.229-1.729c-0.154-1.267-0.154-3.841-0.154-7.066v-2.612c0-0.229,0.038-0.307,0.23-0.307
		c0.577,0,4.571-0.039,5.416,0.077c1.037,0.152,1.575,0.575,1.729,1.036c0.153,0.385,0.192,0.846,0.23,1.19
		c0,0.154,0.039,0.308,0.231,0.308c0.23,0,0.307-0.346,0.307-0.652c0-0.231,0.038-1.537,0.115-2.19
		c0.077-1.075,0.307-1.613,0.307-1.805c0-0.154-0.038-0.27-0.192-0.27c-0.115,0-0.268,0.154-0.422,0.347
		c-0.307,0.384-0.768,0.499-1.575,0.575c-0.461,0.038-0.96,0.038-1.536,0.038l-4.61,0.039c-0.23,0-0.23-0.114-0.23-0.307v-8.912
		c0-0.268,0.077-0.345,0.269-0.345l5.531,0.077c1.306,0,2.112,0.536,2.305,0.96c0.192,0.422,0.307,0.96,0.307,1.229
		c0,0.23,0.115,0.384,0.269,0.384c0.153,0,0.269-0.191,0.307-0.346c0.077-0.384,0.115-1.843,0.154-2.151
		c0.115-0.921,0.268-1.306,0.268-1.535c0-0.154-0.076-0.308-0.23-0.308c-0.115,0-0.269,0.153-0.461,0.192
		c-0.307,0.115-0.883,0.115-1.536,0.152c-0.769,0.039-8.105,0-8.758,0c-0.192,0-2.304-0.075-3.841-0.075
		c-0.384,0-0.538,0.075-0.538,0.268c0,0.116,0.154,0.27,0.269,0.27c0.308,0,0.884,0.038,1.153,0.076
		c1.113,0.154,1.306,0.692,1.382,1.806c0.077,1.038,0.077,1.959,0.077,7.028V310.569L225.373,310.569z M248.88,310.569
		c0,3.149,0,5.723-0.192,7.066c-0.154,0.961-0.231,1.614-0.884,1.729c-0.307,0.038-0.73,0.153-1.037,0.153
		c-0.192,0-0.269,0.153-0.269,0.269c0,0.192,0.192,0.269,0.538,0.269c0.538,0,1.306-0.037,1.959-0.076
		c0.73-0.038,1.383-0.038,1.459-0.038c0.5,0,1.383,0,2.804,0.077c1.383,0.037,3.342,0.114,5.877,0.114c1.307,0,1.652,0,1.883-0.845
		c0.191-0.691,0.461-2.919,0.461-3.15c0-0.229-0.039-0.499-0.23-0.499s-0.27,0.115-0.346,0.499
		c-0.193,1.307-0.654,1.883-1.537,2.268c-0.883,0.345-2.496,0.345-3.379,0.345c-3.342,0-3.957-0.422-4.035-2.612
		c-0.038-0.652,0-4.455,0-5.568v-2.728c0-0.114,0.039-0.23,0.232-0.23c0.576,0,4.186,0.039,5.107,0.153
		c1.307,0.154,1.613,0.538,1.729,0.999c0.154,0.423,0.154,0.769,0.154,1.075c0,0.192,0.076,0.308,0.23,0.308
		c0.23,0,0.307-0.346,0.307-0.614c0-0.231,0.076-1.46,0.154-2.113c0.076-1.075,0.27-1.613,0.27-1.805c0-0.192-0.078-0.27-0.193-0.27
		s-0.268,0.192-0.5,0.424c-0.344,0.345-0.844,0.384-1.65,0.461c-0.768,0.075-5.225,0.075-5.646,0.075
		c-0.193,0-0.193-0.114-0.193-0.345v-8.873c0-0.229,0.039-0.346,0.193-0.346c0.385,0,4.301,0.039,4.879,0.116
		c1.842,0.229,2.188,0.461,2.418,0.998c0.154,0.384,0.193,0.922,0.193,1.152c0,0.269,0.076,0.422,0.268,0.422
		c0.154,0,0.27-0.191,0.309-0.346c0.076-0.384,0.152-1.843,0.191-2.151c0.076-0.921,0.27-1.306,0.27-1.535
		c0-0.154-0.039-0.308-0.154-0.308c-0.154,0-0.307,0.115-0.461,0.153c-0.27,0.039-0.883,0.154-1.535,0.191
		c-0.77,0.039-7.836,0-8.067,0c-0.192,0-2.381-0.075-3.917-0.075c-0.384,0-0.538,0.075-0.538,0.268c0,0.116,0.154,0.27,0.269,0.27
		c0.307,0,0.883,0.038,1.152,0.076c1.114,0.154,1.306,0.692,1.383,1.806c0.077,1.038,0.077,1.959,0.077,7.028V310.569
		L248.88,310.569z M275.057,320.479c1.844,0,3.955-0.231,5.377-1.153c2.42-1.574,3.148-3.649,3.148-5.569
		c0-2.804-1.42-5.069-5.529-7.874l-0.961-0.652c-3.342-2.267-4.379-3.457-4.379-5.531c0-2.306,2.035-3.534,4.494-3.534
		c3.033,0,4.148,1.229,4.379,1.613c0.191,0.346,0.461,1.229,0.498,1.613c0.039,0.27,0.078,0.423,0.309,0.423s0.268-0.23,0.268-0.73
		c0-2.227,0.154-3.303,0.154-3.457c0-0.192-0.076-0.229-0.346-0.229s-0.537,0-1.191-0.154c-0.805-0.192-2.15-0.384-3.494-0.384
		c-4.457,0-7.49,2.305-7.49,6.146c0,2.267,1.191,4.263,4.84,6.991l1.535,1.152c2.996,2.228,4.266,3.341,4.266,5.684
		c0,2.459-1.73,4.341-5.072,4.341c-2.266,0-4.801-0.845-5.338-3.227c-0.115-0.461-0.115-0.921-0.115-1.19
		c0-0.269-0.115-0.384-0.307-0.384c-0.193,0-0.27,0.192-0.27,0.537c-0.039,0.538-0.191,1.844-0.191,3.457
		c0,0.884,0.037,0.999,0.498,1.229C271.521,320.248,273.48,320.479,275.057,320.479L275.057,320.479z M297.502,320.479
		c1.844,0,3.955-0.231,5.379-1.153c2.418-1.574,3.148-3.649,3.148-5.569c0-2.804-1.422-5.069-5.531-7.874l-0.961-0.652
		c-3.342-2.267-4.379-3.457-4.379-5.531c0-2.306,2.037-3.534,4.494-3.534c3.035,0,4.148,1.229,4.379,1.613
		c0.193,0.346,0.461,1.229,0.5,1.613c0.039,0.27,0.076,0.423,0.307,0.423s0.27-0.23,0.27-0.73c0-2.227,0.154-3.303,0.154-3.457
		c0-0.192-0.078-0.229-0.348-0.229c-0.268,0-0.537,0-1.189-0.154c-0.807-0.192-2.15-0.384-3.496-0.384
		c-4.455,0-7.49,2.305-7.49,6.146c0,2.267,1.191,4.263,4.84,6.991l1.537,1.152c2.996,2.228,4.264,3.341,4.264,5.684
		c0,2.459-1.729,4.341-5.07,4.341c-2.266,0-4.801-0.845-5.338-3.227c-0.115-0.461-0.115-0.921-0.115-1.19
		c0-0.269-0.117-0.384-0.309-0.384s-0.27,0.192-0.27,0.537c-0.037,0.538-0.191,1.844-0.191,3.457c0,0.884,0.039,0.999,0.5,1.229
		C293.969,320.248,295.928,320.479,297.502,320.479L297.502,320.479z M314.053,307.65c0,5.877,3.957,12.829,13.213,12.829
		c8.143,0,13.559-6.031,13.559-13.329c0-7.605-5.762-12.252-13.367-12.252C318.123,294.898,314.053,302.388,314.053,307.65
		L314.053,307.65z M317.549,306.766c0-7.104,4.07-10.639,9.717-10.639c5.34,0,10.102,4.11,10.102,11.945
		c0,9.449-6.107,11.062-9.141,11.062C322.119,319.134,317.549,314.372,317.549,306.766L317.549,306.766z M351.156,310.569
		c0,3.149,0,5.723-0.191,7.066c-0.154,0.961-0.23,1.575-0.885,1.729c-0.307,0.077-0.729,0.153-1.037,0.153
		c-0.191,0-0.268,0.153-0.268,0.269c0,0.192,0.191,0.269,0.537,0.269c1.037,0,3.303-0.114,3.342-0.114
		c0.154,0,2.305,0.114,4.148,0.114c0.385,0,0.539-0.114,0.539-0.269c0-0.115-0.039-0.269-0.27-0.269
		c-0.309,0-1.037-0.076-1.498-0.153c-1.037-0.154-1.229-0.769-1.346-1.729c-0.152-1.344-0.152-3.879-0.152-7.028v-0.769
		c0-0.191,0.076-0.269,0.23-0.269l4.301,0.077c0.23,0,0.307,0.039,0.461,0.191c0.73,0.884,2.229,2.996,3.65,4.764
		c1.92,2.457,3.148,4.032,4.607,4.801c0.846,0.461,1.691,0.652,3.611,0.652h2.113c0.613,0,0.807-0.076,0.807-0.269
		c0-0.115-0.115-0.269-0.307-0.269c-0.193,0-0.539,0-1.191-0.115c-0.846-0.115-1.959-0.422-3.764-2.267
		c-1.959-2.036-4.303-4.993-7.068-8.449c3.15-2.689,4.148-5.032,4.148-7.452c0-2.267-1.498-3.842-2.344-4.455
		c-1.766-1.229-4.148-1.421-6.299-1.421c-1.037,0-3.879,0.075-4.225,0.075c-0.193,0-2.459-0.075-3.994-0.075
		c-0.385,0-0.539,0.075-0.539,0.268c0,0.116,0.154,0.27,0.27,0.27c0.307,0,0.883,0.038,1.152,0.076
		c1.113,0.154,1.305,0.692,1.383,1.806c0.076,1.038,0.076,1.959,0.076,7.028V310.569L351.156,310.569z M354.076,297.087
		c0-0.191,0.115-0.307,0.27-0.384c0.344-0.077,1.42-0.192,2.418-0.192c3.611,0,5.84,2.344,5.84,6.414
		c0,2.497-0.885,4.226-2.037,4.994c-0.807,0.537-1.729,0.576-2.535,0.576c-1.498,0-3.227-0.231-3.725-0.499
		c-0.154-0.116-0.23-0.231-0.23-0.423V297.087L354.076,297.087z"/>
	<path fill="#FFFFFF" d="M58.124,256.777l4.225,0.075c3.227,0.077,3.956,0.808,4.072,1.807l0.038,0.345
		c0.038,0.461,0.115,0.577,0.269,0.577c0.153,0,0.307-0.154,0.307-0.423c0-0.384,0.115-2.728,0.115-3.727
		c0-0.191,0-0.384-0.153-0.384c-0.154,0-0.461,0.077-0.961,0.154c-0.537,0.077-1.305,0.153-2.419,0.153H50.865
		c-0.385,0-1.691-0.038-2.651-0.153c-0.922-0.115-1.267-0.385-1.498-0.385c-0.115,0-0.269,0.423-0.345,0.614
		c-0.039,0.27-0.73,3.188-0.73,3.534c0,0.192,0.154,0.27,0.23,0.27c0.154,0,0.269-0.039,0.346-0.308
		c0.115-0.23,0.154-0.461,0.538-1.038c0.499-0.768,1.306-0.998,3.418-1.037l4.878-0.075v13.712c0,3.149,0,5.723-0.153,7.066
		c-0.116,0.961-0.308,1.614-0.999,1.768c-0.307,0.077-0.691,0.154-0.999,0.154c-0.192,0-0.269,0.114-0.269,0.229
		c0,0.192,0.154,0.269,0.538,0.269c0.999,0,3.342-0.114,3.495-0.114c0.193,0,2.343,0.114,4.187,0.114
		c0.384,0,0.538-0.114,0.538-0.269c0-0.115-0.039-0.269-0.269-0.269c-0.307,0-1.075-0.076-1.536-0.153
		c-1.037-0.154-1.191-0.769-1.306-1.729c-0.154-1.344-0.154-3.917-0.154-7.066V256.777L58.124,256.777z M98.323,264.728
		c0-5.07,0-5.992,0.077-7.029c0.077-1.152,0.269-1.613,1.152-1.805c0.423-0.077,0.615-0.077,0.846-0.077
		c0.153,0,0.307-0.153,0.307-0.27c0-0.191-0.192-0.268-0.576-0.268c-0.999,0-3.15,0.076-3.342,0.076
		c-0.154,0-2.343-0.076-3.841-0.076c-0.384,0-0.538,0.076-0.538,0.268c0,0.116,0.115,0.27,0.269,0.27
		c0.307,0,0.884,0.039,1.152,0.077c1.114,0.153,1.268,0.691,1.345,1.805c0.038,1.037,0.077,2.036,0.077,7.105v0.692
		c0,0.192-0.077,0.192-0.192,0.192H80.962c-0.115,0-0.192,0-0.192-0.192v-0.692c0-5.069,0-6.068,0.038-7.105
		c0.077-1.152,0.269-1.613,1.191-1.805c0.384-0.077,0.615-0.077,0.845-0.077c0.115,0,0.269-0.153,0.269-0.27
		c0-0.191-0.154-0.268-0.538-0.268c-1.037,0-3.188,0.076-3.341,0.076c-0.192,0-2.343-0.076-3.88-0.076
		c-0.384,0-0.538,0.076-0.538,0.268c0,0.116,0.154,0.27,0.269,0.27c0.308,0,0.884,0.039,1.153,0.077
		c1.114,0.153,1.306,0.691,1.382,1.805c0.077,1.037,0.077,1.959,0.077,7.029v5.762c0,3.149,0,5.723-0.192,7.066
		c-0.153,0.961-0.23,1.575-0.883,1.729c-0.308,0.077-0.73,0.153-1.037,0.153c-0.192,0-0.269,0.153-0.269,0.269
		c0,0.192,0.192,0.269,0.538,0.269c1.037,0,3.188-0.114,3.38-0.114c0.153,0,2.304,0.114,4.186,0.114
		c0.384,0,0.538-0.114,0.538-0.269c0-0.115-0.077-0.269-0.269-0.269c-0.307,0-1.037-0.076-1.536-0.153
		c-0.999-0.154-1.114-0.769-1.229-1.729c-0.154-1.344-0.154-3.841-0.154-6.989v-3.266c0-0.153,0.077-0.191,0.192-0.191h14.097
		c0.115,0,0.192,0.038,0.192,0.191v3.266c0,3.148,0,5.607-0.154,6.951c-0.115,0.961-0.231,1.613-0.922,1.768
		c-0.307,0.077-0.691,0.153-0.999,0.153c-0.192,0-0.268,0.153-0.268,0.269c0,0.192,0.153,0.269,0.537,0.269
		c0.999,0,3.188-0.114,3.342-0.114c0.192,0,2.343,0.114,4.187,0.114c0.384,0,0.576-0.114,0.576-0.269
		c0-0.115-0.077-0.269-0.307-0.269c-0.269,0-1.038-0.076-1.498-0.153c-1.038-0.154-1.114-0.769-1.23-1.729
		c-0.153-1.344-0.192-3.917-0.192-7.066V264.728L98.323,264.728z M112.646,270.489c0,3.149,0,5.723-0.192,7.066
		c-0.154,0.961-0.231,1.614-0.884,1.729c-0.307,0.038-0.729,0.153-1.037,0.153c-0.192,0-0.269,0.153-0.269,0.269
		c0,0.192,0.192,0.269,0.538,0.269c0.538,0,1.306-0.037,1.959-0.076c0.73-0.038,1.383-0.038,1.46-0.038c0.499,0,1.382,0,2.804,0.077
		c1.382,0.037,3.341,0.114,5.876,0.114c1.306,0,1.652,0,1.882-0.845c0.192-0.691,0.461-2.919,0.461-3.15
		c0-0.229-0.038-0.499-0.23-0.499c-0.192,0-0.269,0.115-0.346,0.499c-0.192,1.307-0.653,1.884-1.536,2.268
		c-0.884,0.345-2.497,0.345-3.38,0.345c-3.342,0-3.957-0.422-4.033-2.612c-0.039-0.652,0-4.455,0-5.568v-2.728
		c0-0.114,0.038-0.23,0.23-0.23c0.576,0,4.187,0.039,5.109,0.153c1.306,0.154,1.613,0.538,1.728,1
		c0.154,0.422,0.154,0.768,0.154,1.074c0,0.192,0.077,0.308,0.23,0.308c0.231,0,0.307-0.346,0.307-0.614
		c0-0.231,0.077-1.46,0.154-2.113c0.077-1.075,0.269-1.613,0.269-1.805c0-0.192-0.077-0.27-0.192-0.27
		c-0.115,0-0.269,0.192-0.499,0.424c-0.346,0.345-0.845,0.384-1.652,0.461c-0.768,0.075-5.224,0.075-5.646,0.075
		c-0.192,0-0.192-0.114-0.192-0.345v-8.873c0-0.229,0.038-0.346,0.192-0.346c0.384,0,4.302,0.039,4.878,0.116
		c1.843,0.229,2.189,0.461,2.42,0.998c0.153,0.384,0.192,0.922,0.192,1.152c0,0.269,0.076,0.422,0.269,0.422
		c0.153,0,0.268-0.191,0.307-0.346c0.077-0.384,0.153-1.843,0.192-2.151c0.077-0.921,0.269-1.306,0.269-1.535
		c0-0.154-0.039-0.307-0.154-0.307c-0.154,0-0.307,0.114-0.461,0.152c-0.269,0.039-0.883,0.154-1.536,0.192
		c-0.768,0.038-7.836,0-8.066,0c-0.192,0-2.382-0.076-3.918-0.076c-0.384,0-0.538,0.076-0.538,0.268c0,0.116,0.154,0.27,0.269,0.27
		c0.307,0,0.883,0.039,1.152,0.077c1.114,0.153,1.306,0.691,1.383,1.805c0.077,1.037,0.077,1.959,0.077,7.029V270.489
		L112.646,270.489z M176.982,255.701c-0.077-0.614-0.269-0.884-0.499-0.884s-0.384,0.23-0.538,0.538l-9.833,20.241l-10.217-20.279
		c-0.192-0.385-0.461-0.5-0.691-0.5c-0.192,0-0.346,0.23-0.384,0.576l-2.459,21.317c-0.153,1.23-0.192,2.42-1.305,2.612
		c-0.5,0.077-0.73,0.115-0.999,0.115c-0.192,0-0.346,0.115-0.346,0.23c0,0.23,0.231,0.307,0.576,0.307
		c0.922,0,2.535-0.114,2.843-0.114c0.269,0,1.882,0.114,3.149,0.114c0.384,0,0.615-0.076,0.615-0.307c0-0.115-0.154-0.23-0.269-0.23
		c-0.23,0-0.73-0.038-1.306-0.192c-0.499-0.115-0.807-0.422-0.807-0.921c0-0.538,0-1.153,0.039-1.652l1.306-14.749h0.153
		c0.577,1.344,3.304,6.837,4.302,8.911c0.845,1.768,3.073,5.953,3.957,7.566c0.653,1.19,0.845,1.498,1.152,1.498
		s0.499-0.308,1.191-1.729l8.143-16.67h0.076l1.614,16.516c0.076,0.615,0.038,1.114-0.154,1.153
		c-0.154,0.038-0.231,0.153-0.231,0.269c0,0.153,0.154,0.269,0.961,0.346c1.229,0.115,4.993,0.191,5.761,0.191
		c0.384,0,0.692-0.114,0.692-0.307c0-0.154-0.116-0.23-0.269-0.23c-0.346,0-1.229,0-2.19-0.308c-1.382-0.461-1.613-2.228-1.728-3.38
		L176.982,255.701L176.982,255.701z M192.907,276.366c-0.653,1.65-1.306,2.804-2.842,2.996c-0.269,0.038-0.769,0.076-0.999,0.076
		c-0.154,0-0.307,0.115-0.307,0.269c0,0.192,0.23,0.269,0.653,0.269c1.382,0,3.072-0.114,3.418-0.114
		c0.384,0,2.228,0.114,3.034,0.114c0.308,0,0.5-0.076,0.5-0.269c0-0.153-0.077-0.269-0.346-0.269h-0.307
		c-0.576,0-1.152-0.23-1.152-0.884c0-0.575,0.192-1.383,0.499-2.188l1.92-5.225c0.077-0.191,0.192-0.269,0.346-0.269h7.797
		c0.192,0,0.231,0.038,0.308,0.192l3.034,7.489c0.23,0.538-0.115,0.808-0.307,0.884c-0.154,0.076-0.231,0.076-0.231,0.23
		c0,0.192,0.538,0.192,1.191,0.23c2.343,0.076,4.84,0.076,5.339,0.076c0.384,0,0.768-0.076,0.768-0.269s-0.23-0.269-0.422-0.269
		c-0.346,0-0.845-0.038-1.345-0.192c-0.73-0.23-1.651-0.653-2.88-3.572c-2.075-4.955-7.49-18.436-8.104-19.818
		c-0.346-0.73-0.461-1.191-0.807-1.191c-0.23,0-0.384,0.192-0.806,1.268L192.907,276.366L192.907,276.366z M197.785,269.529
		c-0.115,0-0.154-0.077-0.115-0.231l3.149-8.949c0.192-0.5,0.384-0.5,0.577,0l3.341,8.949c0.039,0.154,0.039,0.231-0.115,0.231
		H197.785L197.785,269.529z M225.797,260.118c1.037,1.153,4.84,5.146,8.758,9.257c3.572,3.726,8.45,8.527,8.795,8.834
		c1.883,1.729,2.228,1.998,2.574,1.998c0.23,0,0.269-0.192,0.269-2.343l0.077-19.129c0-1.958,0.076-2.611,1.19-2.842
		c0.384-0.077,0.653-0.077,0.807-0.077c0.23,0,0.384-0.192,0.384-0.308c0-0.191-0.269-0.229-0.614-0.229
		c-1.383,0-2.497,0.076-2.881,0.076c-0.384,0-1.998-0.076-3.534-0.076c-0.384,0-0.653,0.038-0.653,0.229
		c0,0.115,0.038,0.308,0.269,0.308c0.269,0,1.037,0.039,1.652,0.153c1.037,0.192,1.229,0.922,1.267,3.034l0.346,16.363
		c-1.037-1.075-4.648-4.955-7.989-8.412c-5.224-5.377-10.141-10.601-10.678-11.139c-0.346-0.346-0.922-0.999-1.306-0.999
		c-0.269,0-0.461,0.346-0.461,1.651v18.706c0,2.958-0.116,3.841-0.961,4.071c-0.499,0.154-1.113,0.192-1.382,0.192
		c-0.154,0-0.269,0.115-0.269,0.269c0,0.231,0.192,0.269,0.538,0.269c1.536,0,2.957-0.114,3.264-0.114
		c0.308,0,1.652,0.114,3.573,0.114c0.384,0,0.614-0.076,0.614-0.269c0-0.153-0.115-0.269-0.269-0.269
		c-0.307,0-1.075-0.038-1.69-0.192c-0.922-0.23-1.229-1.037-1.306-3.725L225.797,260.118L225.797,260.118z M257.773,276.366
		c-0.654,1.65-1.307,2.804-2.842,2.996c-0.27,0.038-0.77,0.076-1,0.076c-0.152,0-0.307,0.115-0.307,0.269
		c0,0.192,0.23,0.269,0.652,0.269c1.383,0,3.074-0.114,3.418-0.114c0.385,0,2.229,0.114,3.035,0.114c0.307,0,0.5-0.076,0.5-0.269
		c0-0.153-0.078-0.269-0.346-0.269h-0.309c-0.576,0-1.15-0.23-1.15-0.884c0-0.575,0.191-1.383,0.498-2.188l1.922-5.225
		c0.076-0.191,0.191-0.269,0.344-0.269h7.799c0.191,0,0.23,0.038,0.307,0.192l3.033,7.489c0.232,0.538-0.113,0.808-0.307,0.884
		c-0.154,0.076-0.23,0.076-0.23,0.23c0,0.192,0.537,0.192,1.191,0.23c2.342,0.076,4.84,0.076,5.338,0.076
		c0.385,0,0.77-0.076,0.77-0.269s-0.23-0.269-0.424-0.269c-0.346,0-0.844-0.038-1.344-0.192c-0.729-0.23-1.65-0.653-2.881-3.572
		c-2.074-4.955-7.49-18.436-8.104-19.818c-0.346-0.73-0.463-1.191-0.807-1.191c-0.23,0-0.385,0.192-0.807,1.268L257.773,276.366
		L257.773,276.366z M262.65,269.529c-0.115,0-0.152-0.077-0.115-0.231l3.15-8.949c0.191-0.5,0.385-0.5,0.576,0l3.342,8.949
		c0.039,0.154,0.039,0.231-0.115,0.231H262.65L262.65,269.529z M302.801,277.288c0,0.614-0.27,0.768-0.691,0.998
		c-0.883,0.5-2.459,0.615-3.648,0.615c-3.111,0-5.953-0.922-8.643-3.419c-1.191-1.114-3.572-4.417-3.572-9.026
		c0-3.803,1.383-6.722,3.342-8.22c2.572-1.959,5.031-2.112,7.066-2.112c4.379,0,6.953,1.306,7.799,2.535
		c0.537,0.768,0.729,1.728,0.768,2.15c0,0.308,0.039,0.499,0.23,0.499c0.23,0,0.383-0.153,0.383-0.69
		c0-3.266,0.193-4.149,0.193-4.61c0-0.152-0.076-0.307-0.422-0.307c-0.846,0-2.037-0.192-2.729-0.346
		c-0.652-0.153-3.033-0.538-5.186-0.538c-2.572,0-5.953,0.23-8.988,2.074c-2.996,1.806-5.645,5.492-5.645,10.717
		c0,4.071,1.959,7.566,4.033,9.295c3.764,3.188,8.564,3.496,11.139,3.496c1.959,0,5.031-0.347,7.182-1.46
		c0.422-0.23,0.461-0.27,0.461-1.768v-3.648c0-1.383,0-2.344,0.039-3.38c0.076-1.152,0.346-1.651,1.268-1.806
		c0.385-0.077,0.613-0.077,0.846-0.077c0.115,0,0.268-0.152,0.268-0.269c0-0.23-0.152-0.27-0.537-0.27
		c-1.037,0-3.15,0.077-3.303,0.077c-0.193,0-2.459-0.077-3.996-0.077c-0.383,0-0.537,0.039-0.537,0.27
		c0,0.116,0.154,0.269,0.27,0.269c0.307,0,0.883,0.039,1.152,0.077c1.383,0.27,1.459,0.653,1.459,3.303V277.288L302.801,277.288z
		 M318.322,270.489c0,3.149,0,5.723-0.191,7.066c-0.154,0.961-0.232,1.614-0.885,1.729c-0.307,0.038-0.729,0.153-1.037,0.153
		c-0.191,0-0.27,0.153-0.27,0.269c0,0.192,0.193,0.269,0.539,0.269c0.537,0,1.305-0.037,1.959-0.076
		c0.729-0.038,1.383-0.038,1.459-0.038c0.5,0,1.383,0,2.805,0.077c1.381,0.037,3.34,0.114,5.875,0.114c1.307,0,1.652,0,1.883-0.845
		c0.193-0.691,0.461-2.919,0.461-3.15c0-0.229-0.037-0.499-0.23-0.499c-0.191,0-0.27,0.115-0.346,0.499
		c-0.191,1.307-0.652,1.884-1.535,2.268c-0.885,0.345-2.498,0.345-3.381,0.345c-3.342,0-3.955-0.422-4.033-2.612
		c-0.039-0.652,0-4.455,0-5.568v-2.728c0-0.114,0.039-0.23,0.23-0.23c0.576,0,4.188,0.039,5.109,0.153
		c1.305,0.154,1.613,0.538,1.729,1c0.152,0.422,0.152,0.768,0.152,1.074c0,0.192,0.078,0.308,0.23,0.308
		c0.23,0,0.309-0.346,0.309-0.614c0-0.231,0.076-1.46,0.152-2.113c0.078-1.075,0.27-1.613,0.27-1.805c0-0.192-0.078-0.27-0.191-0.27
		c-0.115,0-0.27,0.192-0.5,0.424c-0.346,0.345-0.846,0.384-1.652,0.461c-0.768,0.075-5.223,0.075-5.645,0.075
		c-0.193,0-0.193-0.114-0.193-0.345v-8.873c0-0.229,0.039-0.346,0.193-0.346c0.383,0,4.301,0.039,4.877,0.116
		c1.844,0.229,2.189,0.461,2.42,0.998c0.152,0.384,0.191,0.922,0.191,1.152c0,0.269,0.078,0.422,0.27,0.422
		c0.152,0,0.268-0.191,0.307-0.346c0.078-0.384,0.154-1.843,0.193-2.151c0.076-0.921,0.268-1.306,0.268-1.535
		c0-0.154-0.039-0.307-0.154-0.307c-0.152,0-0.307,0.114-0.461,0.152c-0.268,0.039-0.883,0.154-1.535,0.192
		c-0.768,0.038-7.836,0-8.066,0c-0.191,0-2.381-0.076-3.918-0.076c-0.383,0-0.537,0.076-0.537,0.268c0,0.116,0.154,0.27,0.268,0.27
		c0.309,0,0.885,0.039,1.152,0.077c1.115,0.153,1.307,0.691,1.383,1.805c0.078,1.037,0.078,1.959,0.078,7.029V270.489
		L318.322,270.489z M365.693,255.701c-0.078-0.614-0.27-0.884-0.5-0.884s-0.385,0.23-0.537,0.538l-9.834,20.241l-10.217-20.279
		c-0.191-0.385-0.461-0.5-0.691-0.5c-0.191,0-0.346,0.23-0.385,0.576l-2.457,21.317c-0.154,1.23-0.191,2.42-1.307,2.612
		c-0.498,0.077-0.73,0.115-0.998,0.115c-0.193,0-0.346,0.115-0.346,0.23c0,0.23,0.23,0.307,0.576,0.307
		c0.922,0,2.535-0.114,2.842-0.114c0.27,0,1.883,0.114,3.15,0.114c0.383,0,0.613-0.076,0.613-0.307c0-0.115-0.152-0.23-0.27-0.23
		c-0.229,0-0.729-0.038-1.305-0.192c-0.5-0.115-0.807-0.422-0.807-0.921c0-0.538,0-1.153,0.039-1.652l1.305-14.749h0.154
		c0.576,1.344,3.303,6.837,4.303,8.911c0.844,1.768,3.072,5.953,3.955,7.566c0.654,1.19,0.846,1.498,1.152,1.498
		c0.309,0,0.5-0.308,1.191-1.729l8.143-16.67h0.076l1.613,16.516c0.078,0.615,0.039,1.114-0.154,1.153
		c-0.152,0.038-0.229,0.153-0.229,0.269c0,0.153,0.154,0.269,0.959,0.346c1.229,0.115,4.994,0.191,5.762,0.191
		c0.385,0,0.691-0.114,0.691-0.307c0-0.154-0.115-0.23-0.27-0.23c-0.346,0-1.229,0-2.188-0.308c-1.383-0.461-1.613-2.228-1.73-3.38
		L365.693,255.701L365.693,255.701z M382.014,270.489c0,3.149,0,5.723-0.193,7.066c-0.154,0.961-0.23,1.614-0.883,1.729
		c-0.307,0.038-0.73,0.153-1.037,0.153c-0.193,0-0.268,0.153-0.268,0.269c0,0.192,0.191,0.269,0.535,0.269
		c0.539,0,1.307-0.037,1.959-0.076c0.73-0.038,1.385-0.038,1.461-0.038c0.498,0,1.383,0,2.805,0.077
		c1.383,0.037,3.34,0.114,5.875,0.114c1.307,0,1.652,0,1.883-0.845c0.193-0.691,0.461-2.919,0.461-3.15
		c0-0.229-0.039-0.499-0.23-0.499s-0.27,0.115-0.346,0.499c-0.191,1.307-0.652,1.884-1.537,2.268
		c-0.883,0.345-2.496,0.345-3.379,0.345c-3.342,0-3.957-0.422-4.033-2.612c-0.039-0.652,0-4.455,0-5.568v-2.728
		c0-0.114,0.037-0.23,0.23-0.23c0.576,0,4.186,0.039,5.109,0.153c1.305,0.154,1.611,0.538,1.727,1
		c0.154,0.422,0.154,0.768,0.154,1.074c0,0.192,0.078,0.308,0.23,0.308c0.23,0,0.309-0.346,0.309-0.614
		c0-0.231,0.074-1.46,0.152-2.113c0.076-1.075,0.27-1.613,0.27-1.805c0-0.192-0.078-0.27-0.193-0.27s-0.268,0.192-0.498,0.424
		c-0.346,0.345-0.846,0.384-1.652,0.461c-0.768,0.075-5.225,0.075-5.646,0.075c-0.191,0-0.191-0.114-0.191-0.345v-8.873
		c0-0.229,0.037-0.346,0.191-0.346c0.385,0,4.303,0.039,4.879,0.116c1.844,0.229,2.189,0.461,2.42,0.998
		c0.152,0.384,0.191,0.922,0.191,1.152c0,0.269,0.078,0.422,0.27,0.422c0.152,0,0.27-0.191,0.307-0.346
		c0.076-0.384,0.154-1.843,0.191-2.151c0.078-0.921,0.27-1.306,0.27-1.535c0-0.154-0.039-0.307-0.154-0.307
		c-0.152,0-0.307,0.114-0.461,0.152c-0.27,0.039-0.883,0.154-1.535,0.192c-0.768,0.038-7.836,0-8.066,0
		c-0.191,0-2.383-0.076-3.918-0.076c-0.385,0-0.537,0.076-0.537,0.268c0,0.116,0.152,0.27,0.268,0.27
		c0.307,0,0.885,0.039,1.152,0.077c1.113,0.153,1.307,0.691,1.383,1.805c0.078,1.037,0.078,1.959,0.078,7.029V270.489
		L382.014,270.489z M406.91,260.118c1.037,1.153,4.84,5.146,8.758,9.257c3.572,3.726,8.449,8.527,8.797,8.834
		c1.881,1.729,2.227,1.998,2.572,1.998c0.23,0,0.27-0.192,0.27-2.343l0.076-19.129c0-1.958,0.076-2.611,1.189-2.842
		c0.385-0.077,0.654-0.077,0.809-0.077c0.229,0,0.383-0.192,0.383-0.308c0-0.191-0.27-0.229-0.613-0.229
		c-1.383,0-2.498,0.076-2.881,0.076c-0.385,0-1.998-0.076-3.535-0.076c-0.383,0-0.652,0.038-0.652,0.229
		c0,0.115,0.039,0.308,0.27,0.308c0.268,0,1.037,0.039,1.65,0.153c1.037,0.192,1.23,0.922,1.268,3.034l0.346,16.363
		c-1.037-1.075-4.646-4.955-7.988-8.412c-5.225-5.377-10.141-10.601-10.678-11.139c-0.346-0.346-0.922-0.999-1.307-0.999
		c-0.27,0-0.461,0.346-0.461,1.651v18.706c0,2.958-0.115,3.841-0.961,4.071c-0.498,0.154-1.113,0.192-1.381,0.192
		c-0.154,0-0.27,0.115-0.27,0.269c0,0.231,0.191,0.269,0.537,0.269c1.537,0,2.957-0.114,3.264-0.114
		c0.309,0,1.652,0.114,3.574,0.114c0.383,0,0.613-0.076,0.613-0.269c0-0.153-0.115-0.269-0.27-0.269
		c-0.307,0-1.074-0.038-1.689-0.192c-0.922-0.23-1.229-1.037-1.307-3.725L406.91,260.118L406.91,260.118z M449.104,256.777
		l4.225,0.075c3.227,0.077,3.957,0.808,4.072,1.807l0.037,0.345c0.039,0.461,0.115,0.577,0.27,0.577s0.307-0.154,0.307-0.423
		c0-0.384,0.117-2.728,0.117-3.727c0-0.191,0-0.384-0.154-0.384s-0.461,0.077-0.961,0.154c-0.537,0.077-1.307,0.153-2.42,0.153
		h-12.752c-0.385,0-1.689-0.038-2.65-0.153c-0.922-0.115-1.268-0.385-1.498-0.385c-0.115,0-0.268,0.423-0.346,0.614
		c-0.039,0.27-0.73,3.188-0.73,3.534c0,0.192,0.154,0.27,0.23,0.27c0.154,0,0.27-0.039,0.346-0.308
		c0.115-0.23,0.154-0.461,0.539-1.038c0.498-0.768,1.305-0.998,3.418-1.037l4.877-0.075v13.712c0,3.149,0,5.723-0.152,7.066
		c-0.115,0.961-0.307,1.614-1,1.768c-0.307,0.077-0.689,0.154-0.996,0.154c-0.193,0-0.27,0.114-0.27,0.229
		c0,0.192,0.152,0.269,0.537,0.269c0.998,0,3.342-0.114,3.496-0.114c0.191,0,2.342,0.114,4.186,0.114
		c0.385,0,0.537-0.114,0.537-0.269c0-0.115-0.037-0.269-0.268-0.269c-0.309,0-1.076-0.076-1.537-0.153
		c-1.037-0.154-1.191-0.769-1.305-1.729c-0.154-1.344-0.154-3.917-0.154-7.066V256.777L449.104,256.777z"/>
</g>
</svg>
