<?xml version="1.0" encoding="utf-8"?>
<!-- Generator: Adobe Illustrator 16.0.0, SVG Export Plug-In . SVG Version: 6.00 Build 0)  -->
<!DOCTYPE svg PUBLIC "-//W3C//DTD SVG 1.1//EN" "http://www.w3.org/Graphics/SVG/1.1/DTD/svg11.dtd">
<svg version="1.1" id="Layer_1" xmlns="http://www.w3.org/2000/svg" xmlns:xlink="http://www.w3.org/1999/xlink" x="0px" y="0px"
	 width="504px" height="360px" viewBox="0 0 504 360" enable-background="new 0 0 504 360" xml:space="preserve">
<path fill="#FFFFFF" d="M125.333,233.639c2.409,0,16.671-23.894,31.119-50.938c10.188,27.414,25.562,55.199,37.973,55.199
	c4.63,0,15.003-6.298,15.003-8.892c0-0.741-0.741-1.297-2.594-1.297c-14.261,0-30.932-47.789-34.453-65.571
	c17.043-19.078,66.128-48.16,76.317-53.716c2.963-1.667,4.26-3.89,4.26-6.298c0-5.927-7.224-12.596-10.189-12.596
	c-3.519,0-49.085,38.157-70.388,62.238c9.448-19.45,16.671-36.491,16.671-42.233c0-10.744-10.372-22.228-20.56-22.228
	c-14.263,0-66.683,50.197-66.683,77.796c0,11.299,10.002,22.598,16.67,22.598c12.781,0,25.191-41.677,29.637-52.049l-1.297-1.111
	c-6.668,12.41-24.079,44.084-28.525,44.084c-1.482,0-2.963,0-2.963-2.037c0-24.451,46.864-82.613,58.347-82.613
	c0.926,0,1.483,0.556,1.483,1.297c0,18.894-63.35,120.771-63.165,124.845C112.182,224.378,122.924,233.639,125.333,233.639
	L125.333,233.639z"/>
<path fill="#FFFFFF" d="M78.586,158.688c-1.147,0-6.524,7.815-12.261,17.352c-0.215-0.072-0.431-0.072-0.645-0.072
	c-13.911,0-29.828,18.142-29.828,27.605c0,4.23,3.728,9.68,6.022,9.68c2.725,0,6.381-5.162,9.895-9.249
	c-0.574,1.577-0.86,2.867-0.86,3.729c0,3.227,2.939,5.592,6.166,5.592c2.438,0,8.533-11.042,13.193-17.638
	c5.019-7.099,7.528-9.106,7.528-11.114c-1.792,0-11.113,11.473-18.714,23.59c-0.286-0.215-0.502-0.287-0.502-0.86
	c0-7.099,24.594-43.811,24.594-46.176C83.176,159.548,80.953,158.688,78.586,158.688L78.586,158.688z M54.638,197.263
	c-3.728,4.088-10.182,10.899-11.544,10.899c-0.646,0-1.147-0.287-1.147-1.291c0-5.306,16.563-29.11,23.087-29.11h0.216
	C61.378,184.357,57.363,191.456,54.638,197.263L54.638,197.263z M68.188,195.328c0,0.43,0.932,1.218,1.362,1.218
	c0.072,0,4.231-5.664,7.099-8.963c0.072,0,0.144,0,0.216,0c2.652,0,5.234-3.8,5.951-3.8c0.358,0,0.574,0.072,0.574,0.431
	c0,1.003-12.835,17.566-13.265,21.582c0,0.215-0.072,0.503-0.072,0.717c0,3.657,3.154,7.171,6.525,7.171
	c5.951,0,14.699-17.138,23.876-27.534c0-0.431-0.43-0.645-0.86-0.645c-0.43,0-1.004,0.214-1.291,0.573
	c-5.091,5.378-15.989,21.797-19.574,21.797c-0.502,0-0.574,0-0.574-0.286c0-3.012,15.631-25.096,15.631-28.896
	c0-1.291-3.371-2.367-5.306-2.367c-1.291,0-3.155,3.801-5.306,3.801c-0.214,0-0.287-0.215-0.287-0.646
	c0-0.287,0.072-0.646,0.072-1.004c0-1.219-0.287-2.652-2.438-2.652c-2.796,0-6.883,4.804-6.883,8.604
	c0,0.86,0.215,1.721,0.789,2.438C71.702,190.596,68.188,194.682,68.188,195.328L68.188,195.328z M98.375,201.136
	c-2.51,0-5.449,6.812-5.449,8.891s3.37,4.23,5.234,4.23c1.936,0,5.808-7.6,5.808-9.178
	C103.967,202.714,100.885,201.136,98.375,201.136L98.375,201.136z"/>
<path fill="#FFFFFF" d="M265.362,192.93c0,2.253,0,4.095-0.138,5.057c-0.109,0.688-0.164,1.126-0.633,1.236
	c-0.219,0.057-0.521,0.11-0.74,0.11c-0.139,0-0.193,0.109-0.193,0.191c0,0.139,0.138,0.193,0.385,0.193
	c0.742,0,2.309-0.082,2.392-0.082c0.109,0,1.704,0.082,3.023,0.082c0.274,0,0.384-0.082,0.384-0.193
	c0-0.082-0.055-0.191-0.191-0.191c-0.221,0-0.742-0.054-1.072-0.11c-0.742-0.11-0.879-0.549-0.962-1.236
	c-0.11-0.962-0.11-2.804-0.11-5.057v-9.511c0-0.248,0.055-0.413,0.193-0.439c0.246-0.056,0.934-0.165,1.346-0.165
	c0.551,0,2.007-0.138,3.271,1.127c1.292,1.265,1.376,2.775,1.376,3.546c0,2.116-1.87,3.765-4.481,3.765
	c-0.495,0-0.632,0.055-0.632,0.248c0,0.108,0.137,0.219,0.248,0.219c0.137,0.028,0.549,0.028,0.686,0.028
	c3.712,0,6.24-2.227,6.24-5.579c0-1.265-0.659-2.31-1.21-2.804c-0.412-0.358-1.511-1.319-4.618-1.319
	c-1.098,0-2.912,0.055-3.436,0.055c-0.191,0-1.703-0.055-2.803-0.055c-0.275,0-0.385,0.055-0.385,0.191
	c0,0.084,0.109,0.192,0.193,0.192c0.219,0,0.631,0.028,0.824,0.055c0.797,0.11,0.935,0.496,0.99,1.293
	c0.054,0.742,0.054,1.401,0.054,5.028V192.93L265.362,192.93z M282.682,192.93c0,2.253,0,4.095-0.138,5.057
	c-0.11,0.688-0.165,1.126-0.632,1.236c-0.221,0.057-0.523,0.11-0.742,0.11c-0.138,0-0.193,0.109-0.193,0.191
	c0,0.139,0.138,0.193,0.386,0.193c0.742,0,2.363-0.082,2.391-0.082c0.11,0,1.648,0.082,2.969,0.082c0.274,0,0.385-0.082,0.385-0.193
	c0-0.082-0.027-0.191-0.192-0.191c-0.22,0-0.742-0.054-1.072-0.11c-0.742-0.11-0.879-0.549-0.962-1.236
	c-0.109-0.962-0.109-2.776-0.109-5.03v-0.549c0-0.138,0.054-0.193,0.164-0.193l3.079,0.056c0.164,0,0.22,0.028,0.329,0.138
	c0.522,0.631,1.595,2.144,2.611,3.408c1.374,1.759,2.255,2.885,3.299,3.436c0.604,0.33,1.209,0.467,2.584,0.467h1.511
	c0.44,0,0.577-0.055,0.577-0.193c0-0.082-0.082-0.191-0.219-0.191c-0.139,0-0.385,0-0.853-0.082
	c-0.604-0.082-1.402-0.302-2.693-1.623c-1.402-1.456-3.079-3.572-5.059-6.046c2.255-1.925,2.969-3.601,2.969-5.332
	c0-1.622-1.071-2.749-1.677-3.188c-1.264-0.881-2.968-1.018-4.508-1.018c-0.742,0-2.775,0.055-3.022,0.055
	c-0.138,0-1.759-0.055-2.859-0.055c-0.274,0-0.384,0.055-0.384,0.191c0,0.084,0.109,0.192,0.191,0.192
	c0.221,0,0.633,0.028,0.825,0.055c0.797,0.11,0.935,0.496,0.989,1.293c0.056,0.742,0.056,1.401,0.056,5.028V192.93L282.682,192.93z
	 M284.771,183.281c0-0.137,0.082-0.219,0.192-0.275c0.247-0.054,1.017-0.137,1.731-0.137c2.583,0,4.178,1.678,4.178,4.59
	c0,1.786-0.633,3.023-1.457,3.574c-0.577,0.384-1.237,0.412-1.813,0.412c-1.072,0-2.31-0.166-2.667-0.358
	c-0.11-0.082-0.164-0.164-0.164-0.302V183.281L284.771,183.281z M300.662,190.84c0,4.206,2.831,9.182,9.455,9.182
	c5.827,0,9.703-4.316,9.703-9.539c0-5.442-4.123-8.768-9.565-8.768C303.576,181.715,300.662,187.075,300.662,190.84L300.662,190.84z
	 M303.164,190.207c0-5.083,2.913-7.613,6.953-7.613c3.82,0,7.229,2.942,7.229,8.548c0,6.762-4.37,7.916-6.54,7.916
	C306.435,199.058,303.164,195.65,303.164,190.207L303.164,190.207z M327.214,192.93c0,2.253,0,4.095-0.138,5.057
	c-0.11,0.688-0.165,1.154-0.632,1.236c-0.221,0.028-0.522,0.11-0.742,0.11c-0.138,0-0.192,0.109-0.192,0.191
	c0,0.139,0.137,0.193,0.384,0.193c0.742,0,2.255-0.082,2.392-0.082c0.11,0,1.677,0.082,3.023,0.082c0.275,0,0.385-0.082,0.385-0.193
	c0-0.082-0.055-0.191-0.192-0.191c-0.219,0-0.742-0.054-1.099-0.11c-0.66-0.11-0.798-0.549-0.88-1.236
	c-0.11-0.907-0.11-2.749-0.11-5.057v-1.87c0-0.164,0.027-0.22,0.165-0.22c0.413,0,3.271-0.027,3.875,0.056
	c0.742,0.109,1.128,0.411,1.237,0.741c0.11,0.275,0.139,0.605,0.165,0.853c0,0.11,0.027,0.22,0.165,0.22
	c0.165,0,0.22-0.248,0.22-0.467c0-0.165,0.027-1.101,0.083-1.567c0.055-0.77,0.219-1.154,0.219-1.291
	c0-0.11-0.027-0.193-0.138-0.193c-0.081,0-0.191,0.11-0.302,0.248c-0.22,0.275-0.549,0.357-1.126,0.412
	c-0.33,0.026-0.688,0.026-1.1,0.026l-3.299,0.028c-0.165,0-0.165-0.081-0.165-0.22v-6.377c0-0.192,0.056-0.246,0.192-0.246
	l3.958,0.054c0.935,0,1.511,0.385,1.649,0.688c0.138,0.302,0.22,0.686,0.22,0.879c0,0.165,0.082,0.273,0.192,0.273
	c0.109,0,0.193-0.137,0.22-0.247c0.056-0.274,0.083-1.318,0.11-1.539c0.083-0.659,0.191-0.935,0.191-1.099
	c0-0.11-0.055-0.221-0.164-0.221c-0.082,0-0.192,0.11-0.33,0.139c-0.22,0.082-0.632,0.082-1.099,0.109c-0.551,0.027-5.801,0-6.268,0
	c-0.137,0-1.649-0.055-2.749-0.055c-0.273,0-0.384,0.055-0.384,0.191c0,0.084,0.11,0.192,0.191,0.192
	c0.221,0,0.633,0.028,0.825,0.055c0.797,0.11,0.935,0.496,0.989,1.293c0.056,0.742,0.056,1.401,0.056,5.028V192.93L327.214,192.93z
	 M344.034,192.93c0,2.253,0,4.095-0.137,5.057c-0.111,0.688-0.165,1.154-0.632,1.236c-0.221,0.028-0.523,0.11-0.742,0.11
	c-0.139,0-0.193,0.109-0.193,0.191c0,0.139,0.137,0.193,0.385,0.193c0.386,0,0.935-0.026,1.402-0.055
	c0.521-0.027,0.989-0.027,1.044-0.027c0.357,0,0.989,0,2.006,0.056c0.99,0.026,2.392,0.081,4.206,0.081c0.935,0,1.183,0,1.348-0.604
	c0.137-0.495,0.329-2.09,0.329-2.255s-0.027-0.357-0.165-0.357c-0.137,0-0.192,0.082-0.247,0.357
	c-0.139,0.935-0.468,1.348-1.1,1.623c-0.632,0.246-1.786,0.246-2.418,0.246c-2.392,0-2.832-0.303-2.888-1.869
	c-0.026-0.467,0-3.188,0-3.984v-1.953c0-0.081,0.028-0.164,0.166-0.164c0.413,0,2.995,0.027,3.655,0.11
	c0.935,0.11,1.154,0.384,1.236,0.714c0.111,0.303,0.111,0.551,0.111,0.771c0,0.137,0.054,0.219,0.164,0.219
	c0.165,0,0.22-0.247,0.22-0.438c0-0.167,0.055-1.046,0.11-1.513c0.055-0.77,0.193-1.154,0.193-1.291
	c0-0.139-0.057-0.193-0.139-0.193s-0.191,0.138-0.357,0.304c-0.246,0.246-0.604,0.273-1.182,0.33
	c-0.549,0.053-3.738,0.053-4.04,0.053c-0.139,0-0.139-0.081-0.139-0.246v-6.35c0-0.165,0.028-0.247,0.139-0.247
	c0.275,0,3.077,0.028,3.491,0.082c1.317,0.165,1.565,0.33,1.73,0.715c0.11,0.275,0.138,0.659,0.138,0.824
	c0,0.193,0.055,0.302,0.191,0.302c0.11,0,0.193-0.137,0.221-0.247c0.055-0.274,0.109-1.318,0.138-1.539
	c0.055-0.659,0.192-0.935,0.192-1.099c0-0.11-0.027-0.221-0.11-0.221c-0.11,0-0.22,0.083-0.33,0.11
	c-0.192,0.028-0.631,0.11-1.098,0.138c-0.551,0.027-5.607,0-5.773,0c-0.138,0-1.704-0.055-2.803-0.055
	c-0.275,0-0.385,0.055-0.385,0.191c0,0.084,0.109,0.192,0.191,0.192c0.22,0,0.632,0.028,0.825,0.055
	c0.796,0.11,0.935,0.496,0.989,1.293c0.055,0.742,0.055,1.401,0.055,5.028V192.93L344.034,192.93z M362.767,200.021
	c1.319,0,2.83-0.167,3.848-0.826c1.731-1.127,2.253-2.611,2.253-3.985c0-2.007-1.017-3.628-3.957-5.635l-0.688-0.467
	c-2.392-1.621-3.134-2.474-3.134-3.958c0-1.649,1.457-2.528,3.217-2.528c2.17,0,2.968,0.879,3.133,1.154
	c0.138,0.247,0.33,0.879,0.356,1.154c0.028,0.193,0.056,0.302,0.221,0.302s0.191-0.165,0.191-0.522c0-1.594,0.11-2.363,0.11-2.474
	c0-0.137-0.054-0.164-0.247-0.164c-0.192,0-0.384,0-0.853-0.11c-0.575-0.138-1.539-0.275-2.5-0.275c-3.189,0-5.36,1.649-5.36,4.398
	c0,1.621,0.853,3.05,3.464,5.002l1.099,0.825c2.144,1.595,3.052,2.392,3.052,4.067c0,1.759-1.238,3.106-3.629,3.106
	c-1.622,0-3.436-0.605-3.82-2.309c-0.082-0.33-0.082-0.66-0.082-0.853c0-0.191-0.083-0.274-0.22-0.274
	c-0.139,0-0.193,0.138-0.193,0.385c-0.027,0.384-0.137,1.319-0.137,2.474c0,0.632,0.026,0.714,0.356,0.879
	C360.236,199.854,361.639,200.021,362.767,200.021L362.767,200.021z M378.828,200.021c1.319,0,2.83-0.167,3.849-0.826
	c1.73-1.127,2.254-2.611,2.254-3.985c0-2.007-1.018-3.628-3.959-5.635l-0.688-0.467c-2.391-1.621-3.133-2.474-3.133-3.958
	c0-1.649,1.457-2.528,3.216-2.528c2.172,0,2.969,0.879,3.133,1.154c0.139,0.247,0.33,0.879,0.358,1.154
	c0.027,0.193,0.055,0.302,0.219,0.302c0.165,0,0.193-0.165,0.193-0.522c0-1.594,0.11-2.363,0.11-2.474
	c0-0.137-0.056-0.164-0.249-0.164c-0.191,0-0.384,0-0.851-0.11c-0.577-0.138-1.539-0.275-2.502-0.275
	c-3.188,0-5.36,1.649-5.36,4.398c0,1.621,0.853,3.05,3.464,5.002l1.1,0.825c2.145,1.595,3.051,2.392,3.051,4.067
	c0,1.759-1.236,3.106-3.628,3.106c-1.621,0-3.436-0.605-3.819-2.309c-0.083-0.33-0.083-0.66-0.083-0.853
	c0-0.191-0.084-0.274-0.221-0.274s-0.192,0.138-0.192,0.385c-0.027,0.384-0.138,1.319-0.138,2.474c0,0.632,0.028,0.714,0.358,0.879
	C376.3,199.854,377.701,200.021,378.828,200.021L378.828,200.021z M390.672,190.84c0,4.206,2.831,9.182,9.455,9.182
	c5.826,0,9.702-4.316,9.702-9.539c0-5.442-4.123-8.768-9.565-8.768C393.584,181.715,390.672,187.075,390.672,190.84L390.672,190.84z
	 M393.174,190.207c0-5.083,2.912-7.613,6.953-7.613c3.821,0,7.229,2.942,7.229,8.548c0,6.762-4.371,7.916-6.541,7.916
	C396.444,199.058,393.174,195.65,393.174,190.207L393.174,190.207z M417.223,192.93c0,2.253,0,4.095-0.137,5.057
	c-0.11,0.688-0.165,1.126-0.634,1.236c-0.219,0.057-0.521,0.11-0.742,0.11c-0.137,0-0.191,0.109-0.191,0.191
	c0,0.139,0.138,0.193,0.385,0.193c0.742,0,2.363-0.082,2.392-0.082c0.11,0,1.648,0.082,2.968,0.082c0.275,0,0.386-0.082,0.386-0.193
	c0-0.082-0.027-0.191-0.192-0.191c-0.221,0-0.742-0.054-1.072-0.11c-0.742-0.11-0.879-0.549-0.963-1.236
	c-0.109-0.962-0.109-2.776-0.109-5.03v-0.549c0-0.138,0.055-0.193,0.165-0.193l3.078,0.056c0.165,0,0.22,0.028,0.33,0.138
	c0.522,0.631,1.595,2.144,2.611,3.408c1.374,1.759,2.254,2.885,3.298,3.436c0.604,0.33,1.21,0.467,2.584,0.467h1.512
	c0.439,0,0.577-0.055,0.577-0.193c0-0.082-0.082-0.191-0.219-0.191c-0.139,0-0.386,0-0.853-0.082
	c-0.605-0.082-1.402-0.302-2.693-1.623c-1.402-1.456-3.079-3.572-5.059-6.046c2.255-1.925,2.969-3.601,2.969-5.332
	c0-1.622-1.071-2.749-1.677-3.188c-1.264-0.881-2.969-1.018-4.508-1.018c-0.742,0-2.775,0.055-3.022,0.055
	c-0.139,0-1.76-0.055-2.858-0.055c-0.275,0-0.386,0.055-0.386,0.191c0,0.084,0.11,0.192,0.192,0.192c0.22,0,0.632,0.028,0.825,0.055
	c0.797,0.11,0.934,0.496,0.989,1.293c0.055,0.742,0.055,1.401,0.055,5.028V192.93L417.223,192.93z M419.312,183.281
	c0-0.137,0.083-0.219,0.193-0.275c0.246-0.054,1.016-0.137,1.73-0.137c2.584,0,4.179,1.678,4.179,4.59
	c0,1.786-0.633,3.023-1.458,3.574c-0.577,0.384-1.236,0.412-1.813,0.412c-1.072,0-2.31-0.166-2.666-0.358
	c-0.11-0.082-0.165-0.164-0.165-0.302V183.281L419.312,183.281z"/>
<path fill="#FFFFFF" d="M207.532,154.437l3.024,0.054c2.309,0.055,2.83,0.577,2.913,1.293l0.027,0.246
	c0.027,0.33,0.083,0.413,0.193,0.413c0.109,0,0.22-0.11,0.22-0.303c0-0.274,0.083-1.951,0.083-2.666c0-0.138,0-0.275-0.11-0.275
	c-0.11,0-0.33,0.056-0.688,0.11c-0.385,0.056-0.935,0.11-1.731,0.11h-9.126c-0.275,0-1.21-0.027-1.896-0.11
	c-0.66-0.082-0.907-0.275-1.072-0.275c-0.082,0-0.192,0.303-0.247,0.44c-0.028,0.192-0.523,2.281-0.523,2.528
	c0,0.138,0.11,0.193,0.165,0.193c0.11,0,0.192-0.028,0.248-0.221c0.083-0.165,0.11-0.329,0.385-0.742
	c0.357-0.55,0.935-0.715,2.446-0.742l3.491-0.054v9.812c0,2.254,0,4.096-0.109,5.057c-0.084,0.688-0.221,1.155-0.716,1.266
	c-0.219,0.055-0.494,0.11-0.714,0.11c-0.138,0-0.193,0.081-0.193,0.163c0,0.139,0.11,0.193,0.385,0.193
	c0.715,0,2.392-0.083,2.501-0.083c0.138,0,1.676,0.083,2.996,0.083c0.274,0,0.385-0.083,0.385-0.193
	c0-0.082-0.028-0.191-0.192-0.191c-0.22,0-0.77-0.055-1.099-0.11c-0.742-0.11-0.853-0.549-0.935-1.237
	c-0.11-0.961-0.11-2.803-0.11-5.057V154.437L207.532,154.437z M236.297,160.125c0-3.628,0-4.288,0.056-5.03
	c0.055-0.824,0.192-1.154,0.824-1.291c0.302-0.056,0.44-0.056,0.605-0.056c0.109,0,0.22-0.109,0.22-0.192
	c0-0.137-0.138-0.191-0.413-0.191c-0.715,0-2.254,0.055-2.391,0.055c-0.11,0-1.677-0.055-2.749-0.055
	c-0.274,0-0.384,0.055-0.384,0.191c0,0.083,0.082,0.192,0.192,0.192c0.22,0,0.632,0.028,0.825,0.056
	c0.797,0.109,0.908,0.495,0.962,1.291c0.027,0.742,0.055,1.457,0.055,5.085v0.495c0,0.138-0.055,0.138-0.138,0.138h-10.087
	c-0.082,0-0.138,0-0.138-0.138v-0.495c0-3.628,0-4.343,0.028-5.085c0.055-0.824,0.192-1.154,0.852-1.291
	c0.274-0.056,0.439-0.056,0.604-0.056c0.082,0,0.193-0.109,0.193-0.192c0-0.137-0.111-0.191-0.386-0.191
	c-0.742,0-2.281,0.055-2.39,0.055c-0.138,0-1.677-0.055-2.777-0.055c-0.274,0-0.384,0.055-0.384,0.191
	c0,0.083,0.11,0.192,0.192,0.192c0.22,0,0.632,0.028,0.825,0.056c0.797,0.109,0.935,0.495,0.989,1.291
	c0.055,0.742,0.055,1.402,0.055,5.03v4.123c0,2.254,0,4.096-0.138,5.057c-0.109,0.688-0.164,1.127-0.631,1.237
	c-0.22,0.056-0.522,0.11-0.742,0.11c-0.138,0-0.192,0.109-0.192,0.191c0,0.139,0.137,0.193,0.384,0.193
	c0.742,0,2.282-0.083,2.419-0.083c0.109,0,1.648,0.083,2.995,0.083c0.274,0,0.385-0.083,0.385-0.193
	c0-0.082-0.056-0.191-0.192-0.191c-0.22,0-0.742-0.055-1.1-0.11c-0.714-0.11-0.796-0.549-0.879-1.237
	c-0.11-0.961-0.11-2.748-0.11-5.001v-2.337c0-0.11,0.056-0.137,0.138-0.137h10.087c0.083,0,0.138,0.026,0.138,0.137v2.337
	c0,2.253,0,4.013-0.11,4.974c-0.083,0.688-0.167,1.154-0.66,1.265c-0.22,0.056-0.494,0.11-0.715,0.11
	c-0.137,0-0.191,0.109-0.191,0.191c0,0.139,0.109,0.193,0.384,0.193c0.714,0,2.281-0.083,2.392-0.083
	c0.137,0,1.676,0.083,2.997,0.083c0.274,0,0.412-0.083,0.412-0.193c0-0.082-0.055-0.191-0.22-0.191c-0.191,0-0.742-0.055-1.071-0.11
	c-0.743-0.11-0.797-0.549-0.88-1.237c-0.11-0.961-0.138-2.803-0.138-5.057V160.125L236.297,160.125z M246.547,164.248
	c0,2.254,0,4.096-0.138,5.057c-0.11,0.688-0.166,1.155-0.632,1.237c-0.219,0.028-0.522,0.11-0.742,0.11
	c-0.138,0-0.193,0.109-0.193,0.191c0,0.139,0.138,0.193,0.385,0.193c0.385,0,0.934-0.026,1.402-0.055
	c0.522-0.028,0.99-0.028,1.044-0.028c0.357,0,0.99,0,2.007,0.057c0.988,0.026,2.389,0.081,4.204,0.081c0.936,0,1.183,0,1.348-0.604
	c0.137-0.494,0.33-2.089,0.33-2.255c0-0.164-0.027-0.356-0.165-0.356s-0.192,0.082-0.247,0.356c-0.137,0.936-0.467,1.349-1.1,1.623
	c-0.633,0.246-1.787,0.246-2.418,0.246c-2.392,0-2.832-0.302-2.886-1.869c-0.028-0.467,0-3.188,0-3.984v-1.951
	c0-0.082,0.027-0.165,0.165-0.165c0.412,0,2.996,0.027,3.655,0.109c0.935,0.11,1.154,0.385,1.236,0.716
	c0.11,0.302,0.11,0.549,0.11,0.769c0,0.138,0.056,0.22,0.165,0.22c0.164,0,0.219-0.247,0.219-0.439c0-0.165,0.056-1.045,0.111-1.512
	c0.055-0.77,0.192-1.154,0.192-1.292s-0.056-0.192-0.138-0.192s-0.191,0.138-0.357,0.303c-0.247,0.247-0.604,0.275-1.182,0.33
	c-0.55,0.054-3.738,0.054-4.04,0.054c-0.138,0-0.138-0.082-0.138-0.246v-6.35c0-0.164,0.027-0.248,0.138-0.248
	c0.274,0,3.078,0.028,3.49,0.084c1.319,0.164,1.567,0.329,1.731,0.714c0.109,0.274,0.137,0.659,0.137,0.824
	c0,0.192,0.055,0.302,0.193,0.302c0.109,0,0.191-0.137,0.22-0.247c0.056-0.274,0.11-1.318,0.138-1.539
	c0.055-0.659,0.191-0.935,0.191-1.099c0-0.11-0.027-0.22-0.109-0.22c-0.109,0-0.22,0.082-0.33,0.109
	c-0.192,0.027-0.632,0.11-1.099,0.138c-0.55,0.027-5.607,0-5.772,0c-0.137,0-1.704-0.055-2.804-0.055
	c-0.274,0-0.384,0.055-0.384,0.191c0,0.083,0.11,0.192,0.191,0.192c0.22,0,0.633,0.028,0.825,0.056
	c0.797,0.109,0.935,0.495,0.99,1.291c0.056,0.742,0.056,1.402,0.056,5.03V164.248L246.547,164.248z M292.586,153.666
	c-0.057-0.439-0.193-0.633-0.358-0.633c-0.164,0-0.273,0.165-0.384,0.386l-7.037,14.484l-7.312-14.512
	c-0.137-0.275-0.33-0.358-0.494-0.358c-0.138,0-0.248,0.165-0.274,0.413l-1.76,15.254c-0.109,0.881-0.138,1.731-0.934,1.87
	c-0.357,0.055-0.522,0.082-0.716,0.082c-0.137,0-0.247,0.083-0.247,0.165c0,0.165,0.165,0.22,0.412,0.22
	c0.66,0,1.814-0.083,2.034-0.083c0.192,0,1.347,0.083,2.254,0.083c0.274,0,0.44-0.055,0.44-0.22c0-0.082-0.11-0.165-0.192-0.165
	c-0.165,0-0.523-0.027-0.936-0.138c-0.356-0.083-0.577-0.303-0.577-0.659c0-0.385,0-0.825,0.028-1.183l0.935-10.554h0.109
	c0.413,0.961,2.364,4.893,3.079,6.376c0.604,1.266,2.198,4.261,2.831,5.415c0.467,0.852,0.604,1.072,0.824,1.072
	c0.22,0,0.356-0.221,0.852-1.237l5.827-11.929h0.055l1.155,11.818c0.055,0.44,0.026,0.797-0.11,0.825
	c-0.11,0.027-0.165,0.11-0.165,0.192c0,0.109,0.11,0.191,0.688,0.248c0.88,0.082,3.572,0.137,4.122,0.137
	c0.275,0,0.496-0.083,0.496-0.22c0-0.11-0.084-0.165-0.193-0.165c-0.247,0-0.879,0-1.566-0.221c-0.989-0.33-1.154-1.594-1.237-2.418
	L292.586,153.666L292.586,153.666z M303.98,168.454c-0.467,1.181-0.934,2.006-2.033,2.144c-0.192,0.027-0.55,0.055-0.715,0.055
	c-0.11,0-0.22,0.083-0.22,0.191c0,0.139,0.164,0.193,0.468,0.193c0.988,0,2.198-0.083,2.445-0.083c0.274,0,1.595,0.083,2.171,0.083
	c0.221,0,0.357-0.055,0.357-0.193c0-0.108-0.055-0.191-0.247-0.191h-0.22c-0.412,0-0.824-0.165-0.824-0.633
	c0-0.411,0.138-0.989,0.357-1.565l1.374-3.739c0.055-0.137,0.137-0.192,0.247-0.192h5.58c0.137,0,0.165,0.027,0.221,0.138
	l2.17,5.359c0.165,0.386-0.082,0.578-0.219,0.633c-0.11,0.055-0.166,0.055-0.166,0.165c0,0.137,0.385,0.137,0.852,0.165
	c1.678,0.055,3.465,0.055,3.821,0.055c0.274,0,0.55-0.055,0.55-0.193c0-0.137-0.164-0.191-0.302-0.191
	c-0.248,0-0.604-0.027-0.963-0.138c-0.521-0.165-1.182-0.467-2.061-2.557c-1.485-3.546-5.36-13.192-5.8-14.182
	c-0.248-0.522-0.33-0.853-0.578-0.853c-0.164,0-0.274,0.138-0.577,0.907L303.98,168.454L303.98,168.454z M307.472,163.562
	c-0.082,0-0.11-0.056-0.082-0.166l2.253-6.404c0.138-0.357,0.275-0.357,0.413,0l2.391,6.404c0.027,0.11,0.027,0.166-0.082,0.166
	H307.472L307.472,163.562z M327.517,156.827c0.742,0.825,3.464,3.683,6.268,6.624c2.556,2.666,6.047,6.102,6.293,6.321
	c1.348,1.238,1.595,1.43,1.842,1.43c0.165,0,0.193-0.138,0.193-1.677l0.055-13.688c0-1.4,0.055-1.868,0.852-2.033
	c0.274-0.056,0.468-0.056,0.578-0.056c0.164,0,0.273-0.138,0.273-0.22c0-0.137-0.191-0.164-0.438-0.164
	c-0.989,0-1.787,0.055-2.062,0.055c-0.275,0-1.43-0.055-2.529-0.055c-0.274,0-0.467,0.027-0.467,0.164
	c0,0.082,0.026,0.22,0.192,0.22c0.192,0,0.742,0.028,1.183,0.11c0.741,0.138,0.879,0.659,0.905,2.171l0.248,11.71
	c-0.742-0.77-3.325-3.546-5.717-6.021c-3.738-3.848-7.257-7.585-7.641-7.971c-0.248-0.247-0.66-0.715-0.936-0.715
	c-0.192,0-0.329,0.248-0.329,1.182v13.387c0,2.116-0.083,2.748-0.688,2.913c-0.356,0.11-0.796,0.138-0.987,0.138
	c-0.111,0-0.193,0.083-0.193,0.191c0,0.167,0.137,0.193,0.385,0.193c1.1,0,2.116-0.083,2.336-0.083s1.183,0.083,2.557,0.083
	c0.274,0,0.439-0.055,0.439-0.193c0-0.108-0.082-0.191-0.192-0.191c-0.22,0-0.77-0.027-1.21-0.138
	c-0.659-0.165-0.879-0.742-0.934-2.665L327.517,156.827L327.517,156.827z M350.398,168.454c-0.468,1.181-0.935,2.006-2.033,2.144
	c-0.192,0.027-0.551,0.055-0.716,0.055c-0.108,0-0.219,0.083-0.219,0.191c0,0.139,0.164,0.193,0.467,0.193
	c0.989,0,2.199-0.083,2.445-0.083c0.275,0,1.595,0.083,2.172,0.083c0.22,0,0.358-0.055,0.358-0.193c0-0.108-0.057-0.191-0.248-0.191
	h-0.221c-0.412,0-0.823-0.165-0.823-0.633c0-0.411,0.137-0.989,0.356-1.565l1.375-3.739c0.055-0.137,0.138-0.192,0.246-0.192h5.581
	c0.137,0,0.165,0.027,0.22,0.138l2.17,5.359c0.167,0.386-0.081,0.578-0.219,0.633c-0.11,0.055-0.165,0.055-0.165,0.165
	c0,0.137,0.384,0.137,0.853,0.165c1.676,0.055,3.463,0.055,3.819,0.055c0.275,0,0.551-0.055,0.551-0.193
	c0-0.137-0.165-0.191-0.304-0.191c-0.247,0-0.604-0.027-0.961-0.138c-0.521-0.165-1.182-0.467-2.062-2.557
	c-1.484-3.546-5.36-13.192-5.799-14.182c-0.247-0.522-0.331-0.853-0.577-0.853c-0.165,0-0.275,0.138-0.577,0.907L350.398,168.454
	L350.398,168.454z M353.889,163.562c-0.082,0-0.109-0.056-0.082-0.166l2.254-6.404c0.137-0.357,0.275-0.357,0.412,0l2.392,6.404
	c0.028,0.11,0.028,0.166-0.082,0.166H353.889L353.889,163.562z M382.62,169.113c0,0.439-0.193,0.55-0.495,0.715
	c-0.632,0.357-1.76,0.44-2.61,0.44c-2.227,0-4.261-0.66-6.185-2.447c-0.853-0.797-2.557-3.161-2.557-6.459
	c0-2.722,0.989-4.811,2.392-5.882c1.841-1.402,3.601-1.512,5.057-1.512c3.134,0,4.976,0.935,5.581,1.814
	c0.384,0.549,0.521,1.235,0.549,1.538c0,0.221,0.028,0.357,0.165,0.357c0.165,0,0.273-0.109,0.273-0.494
	c0-2.337,0.139-2.97,0.139-3.299c0-0.109-0.055-0.22-0.302-0.22c-0.605,0-1.458-0.138-1.952-0.247
	c-0.467-0.11-2.171-0.386-3.711-0.386c-1.841,0-4.26,0.165-6.432,1.484c-2.145,1.292-4.04,3.931-4.04,7.669
	c0,2.914,1.402,5.415,2.887,6.651c2.693,2.281,6.128,2.502,7.971,2.502c1.401,0,3.601-0.248,5.139-1.045
	c0.302-0.165,0.33-0.193,0.33-1.265v-2.61c0-0.99,0-1.678,0.028-2.419c0.054-0.825,0.247-1.182,0.906-1.292
	c0.275-0.056,0.439-0.056,0.605-0.056c0.083,0,0.191-0.108,0.191-0.192c0-0.164-0.108-0.192-0.384-0.192
	c-0.742,0-2.255,0.055-2.363,0.055c-0.139,0-1.76-0.055-2.86-0.055c-0.273,0-0.384,0.028-0.384,0.192
	c0,0.084,0.11,0.192,0.192,0.192c0.22,0,0.632,0.028,0.825,0.056c0.989,0.192,1.044,0.467,1.044,2.363V169.113L382.62,169.113z
	 M393.727,164.248c0,2.254,0,4.096-0.137,5.057c-0.11,0.688-0.166,1.155-0.633,1.237c-0.22,0.028-0.521,0.11-0.742,0.11
	c-0.137,0-0.193,0.109-0.193,0.191c0,0.139,0.139,0.193,0.386,0.193c0.385,0,0.934-0.026,1.402-0.055
	c0.521-0.028,0.989-0.028,1.044-0.028c0.357,0,0.989,0,2.007,0.057c0.988,0.026,2.39,0.081,4.204,0.081c0.935,0,1.183,0,1.348-0.604
	c0.138-0.494,0.329-2.089,0.329-2.255c0-0.164-0.026-0.356-0.164-0.356s-0.193,0.082-0.248,0.356
	c-0.137,0.936-0.467,1.349-1.099,1.623c-0.633,0.246-1.787,0.246-2.419,0.246c-2.392,0-2.83-0.302-2.886-1.869
	c-0.028-0.467,0-3.188,0-3.984v-1.951c0-0.082,0.027-0.165,0.164-0.165c0.413,0,2.997,0.027,3.656,0.109
	c0.934,0.11,1.155,0.385,1.237,0.716c0.109,0.302,0.109,0.549,0.109,0.769c0,0.138,0.056,0.22,0.165,0.22
	c0.164,0,0.221-0.247,0.221-0.439c0-0.165,0.054-1.045,0.108-1.512c0.057-0.77,0.193-1.154,0.193-1.292s-0.056-0.192-0.137-0.192
	c-0.083,0-0.193,0.138-0.358,0.303c-0.247,0.247-0.605,0.275-1.183,0.33c-0.549,0.054-3.737,0.054-4.039,0.054
	c-0.138,0-0.138-0.082-0.138-0.246v-6.35c0-0.164,0.027-0.248,0.138-0.248c0.274,0,3.078,0.028,3.49,0.084
	c1.319,0.164,1.566,0.329,1.731,0.714c0.109,0.274,0.137,0.659,0.137,0.824c0,0.192,0.057,0.302,0.193,0.302
	c0.109,0,0.191-0.137,0.22-0.247c0.056-0.274,0.11-1.318,0.138-1.539c0.055-0.659,0.191-0.935,0.191-1.099
	c0-0.11-0.027-0.22-0.11-0.22c-0.108,0-0.219,0.082-0.329,0.109c-0.192,0.027-0.632,0.11-1.099,0.138c-0.55,0.027-5.607,0-5.772,0
	c-0.137,0-1.704-0.055-2.804-0.055c-0.274,0-0.385,0.055-0.385,0.191c0,0.083,0.11,0.192,0.191,0.192
	c0.222,0,0.634,0.028,0.825,0.056c0.798,0.109,0.935,0.495,0.989,1.291c0.056,0.742,0.056,1.402,0.056,5.03V164.248L393.727,164.248
	z M427.625,153.666c-0.056-0.439-0.192-0.633-0.357-0.633s-0.275,0.165-0.385,0.386l-7.037,14.484l-7.311-14.512
	c-0.138-0.275-0.33-0.358-0.495-0.358c-0.137,0-0.247,0.165-0.275,0.413l-1.758,15.254c-0.11,0.881-0.138,1.731-0.936,1.87
	c-0.356,0.055-0.522,0.082-0.714,0.082c-0.139,0-0.247,0.083-0.247,0.165c0,0.165,0.164,0.22,0.412,0.22
	c0.659,0,1.813-0.083,2.033-0.083c0.193,0,1.348,0.083,2.255,0.083c0.273,0,0.438-0.055,0.438-0.22c0-0.082-0.109-0.165-0.192-0.165
	c-0.164,0-0.521-0.027-0.934-0.138c-0.358-0.083-0.578-0.303-0.578-0.659c0-0.385,0-0.825,0.028-1.183l0.934-10.554h0.11
	c0.412,0.961,2.363,4.893,3.079,6.376c0.604,1.266,2.198,4.261,2.83,5.415c0.469,0.852,0.605,1.072,0.825,1.072
	c0.221,0,0.357-0.221,0.853-1.237l5.826-11.929h0.055l1.154,11.818c0.056,0.44,0.028,0.797-0.11,0.825
	c-0.109,0.027-0.163,0.11-0.163,0.192c0,0.109,0.11,0.191,0.686,0.248c0.88,0.082,3.574,0.137,4.123,0.137
	c0.275,0,0.495-0.083,0.495-0.22c0-0.11-0.082-0.165-0.193-0.165c-0.247,0-0.879,0-1.564-0.221c-0.99-0.33-1.155-1.594-1.239-2.418
	L427.625,153.666L427.625,153.666z M439.304,164.248c0,2.254,0,4.096-0.139,5.057c-0.11,0.688-0.164,1.155-0.631,1.237
	c-0.22,0.028-0.523,0.11-0.742,0.11c-0.139,0-0.192,0.109-0.192,0.191c0,0.139,0.138,0.193,0.384,0.193
	c0.386,0,0.935-0.026,1.401-0.055c0.522-0.028,0.991-0.028,1.046-0.028c0.356,0,0.989,0,2.007,0.057
	c0.989,0.026,2.39,0.081,4.204,0.081c0.935,0,1.183,0,1.347-0.604c0.139-0.494,0.33-2.089,0.33-2.255
	c0-0.164-0.027-0.356-0.165-0.356c-0.137,0-0.192,0.082-0.247,0.356c-0.137,0.936-0.467,1.349-1.1,1.623
	c-0.632,0.246-1.786,0.246-2.418,0.246c-2.392,0-2.832-0.302-2.887-1.869c-0.027-0.467,0-3.188,0-3.984v-1.951
	c0-0.082,0.027-0.165,0.165-0.165c0.412,0,2.995,0.027,3.656,0.109c0.934,0.11,1.153,0.385,1.235,0.716
	c0.11,0.302,0.11,0.549,0.11,0.769c0,0.138,0.057,0.22,0.165,0.22c0.165,0,0.221-0.247,0.221-0.439c0-0.165,0.054-1.045,0.109-1.512
	c0.055-0.77,0.193-1.154,0.193-1.292s-0.057-0.192-0.139-0.192c-0.083,0-0.191,0.138-0.356,0.303
	c-0.247,0.247-0.605,0.275-1.183,0.33c-0.549,0.054-3.738,0.054-4.04,0.054c-0.138,0-0.138-0.082-0.138-0.246v-6.35
	c0-0.164,0.027-0.248,0.138-0.248c0.275,0,3.078,0.028,3.491,0.084c1.319,0.164,1.566,0.329,1.731,0.714
	c0.109,0.274,0.137,0.659,0.137,0.824c0,0.192,0.056,0.302,0.193,0.302c0.108,0,0.192-0.137,0.219-0.247
	c0.055-0.274,0.11-1.318,0.138-1.539c0.056-0.659,0.192-0.935,0.192-1.099c0-0.11-0.027-0.22-0.11-0.22
	c-0.109,0-0.22,0.082-0.33,0.109c-0.192,0.027-0.632,0.11-1.099,0.138c-0.549,0.027-5.607,0-5.771,0
	c-0.138,0-1.705-0.055-2.804-0.055c-0.275,0-0.385,0.055-0.385,0.191c0,0.083,0.109,0.192,0.191,0.192
	c0.22,0,0.634,0.028,0.825,0.056c0.796,0.109,0.935,0.495,0.989,1.291c0.056,0.742,0.056,1.402,0.056,5.03V164.248L439.304,164.248z
	 M457.119,156.827c0.742,0.825,3.464,3.683,6.268,6.624c2.556,2.666,6.046,6.102,6.295,6.321c1.346,1.238,1.593,1.43,1.841,1.43
	c0.164,0,0.192-0.138,0.192-1.677l0.055-13.688c0-1.4,0.055-1.868,0.852-2.033c0.274-0.056,0.468-0.056,0.578-0.056
	c0.163,0,0.274-0.138,0.274-0.22c0-0.137-0.193-0.164-0.439-0.164c-0.989,0-1.787,0.055-2.062,0.055
	c-0.275,0-1.43-0.055-2.529-0.055c-0.274,0-0.467,0.027-0.467,0.164c0,0.082,0.027,0.22,0.192,0.22c0.191,0,0.742,0.028,1.182,0.11
	c0.742,0.138,0.88,0.659,0.906,2.171l0.248,11.71c-0.742-0.77-3.325-3.546-5.717-6.021c-3.738-3.848-7.256-7.585-7.641-7.971
	c-0.247-0.247-0.66-0.715-0.936-0.715c-0.192,0-0.329,0.248-0.329,1.182v13.387c0,2.116-0.083,2.748-0.688,2.913
	c-0.356,0.11-0.797,0.138-0.988,0.138c-0.11,0-0.193,0.083-0.193,0.191c0,0.167,0.138,0.193,0.385,0.193
	c1.1,0,2.116-0.083,2.335-0.083c0.221,0,1.183,0.083,2.558,0.083c0.274,0,0.439-0.055,0.439-0.193c0-0.108-0.083-0.191-0.193-0.191
	c-0.219,0-0.769-0.027-1.209-0.138c-0.659-0.165-0.879-0.742-0.935-2.665L457.119,156.827L457.119,156.827z M487.313,154.437
	l3.023,0.054c2.309,0.055,2.831,0.577,2.914,1.293l0.026,0.246c0.028,0.33,0.082,0.413,0.192,0.413s0.22-0.11,0.22-0.303
	c0-0.274,0.084-1.951,0.084-2.666c0-0.138,0-0.275-0.11-0.275s-0.33,0.056-0.688,0.11c-0.385,0.056-0.936,0.11-1.731,0.11h-9.126
	c-0.275,0-1.209-0.027-1.896-0.11c-0.659-0.082-0.907-0.275-1.071-0.275c-0.083,0-0.191,0.303-0.248,0.44
	c-0.027,0.192-0.522,2.281-0.522,2.528c0,0.138,0.11,0.193,0.165,0.193c0.11,0,0.192-0.028,0.247-0.221
	c0.083-0.165,0.11-0.329,0.386-0.742c0.356-0.55,0.934-0.715,2.446-0.742l3.489-0.054v9.812c0,2.254,0,4.096-0.108,5.057
	c-0.083,0.688-0.22,1.155-0.716,1.266c-0.22,0.055-0.493,0.11-0.713,0.11c-0.139,0-0.192,0.081-0.192,0.163
	c0,0.139,0.108,0.193,0.384,0.193c0.715,0,2.392-0.083,2.502-0.083c0.137,0,1.676,0.083,2.995,0.083
	c0.275,0,0.385-0.083,0.385-0.193c0-0.082-0.027-0.191-0.192-0.191c-0.221,0-0.77-0.055-1.1-0.11
	c-0.742-0.11-0.853-0.549-0.934-1.237c-0.11-0.961-0.11-2.803-0.11-5.057V154.437L487.313,154.437z"/>
</svg>
